# xmcd
#
# Track frame offsets: 
#        183
#        13083
#        26445
#        40045
#        52970
#        64870
#        76683
#        90308
#        102295
#        115308
#        128770
#        140883
#        152108
#        164970
#        176620
#        188370
#        198358
#        210108
#        220395
#        233083
#        244283
#
# Disc length: 3394 seconds
#
# Revision: 3
# Processed by: cddbd v1.5.2PL0 Copyright (c) Steve Scherf et al.
# Submitted via: ExactAudioCopy v1.3
#
DISCID=180d4015
DTITLE=Robert Johnson - Traveling Riverside Blues
DYEAR=1937
DGENRE=Blues
TTITLE0=Kindhearted Woman Blues
TTITLE1=I Believe I'll Dust My Broom
TTITLE2=Sweet Home Chicago
TTITLE3=Rambling On My Mind
TTITLE4=When You Got A Good Friend
TTITLE5=Come On In My Kitchen
TTITLE6=Terraplane Blues
TTITLE7=Phonograph Blues
TTITLE8=32-30 Blues
TTITLE9=They're Red Hot
TTITLE10=Cross Road Blues
TTITLE11=Walking Blues
TTITLE12=Preaching Blues
TTITLE13=If I Had Possesion Over Judgement Day
TTITLE14=I'm A Steady Rolling Man
TTITLE15=Little Queen Of Spades
TTITLE16=Me And The Devil Blues
TTITLE17=Stop Breaking Down Blues
TTITLE18=Travelling Riverside Blues
TTITLE19=Love In Vain
TTITLE20=Milkow's Valf Blues
EXTD=
EXTT0=
EXTT1=
EXTT2=
EXTT3=
EXTT4=
EXTT5=
EXTT6=
EXTT7=
EXTT8=
EXTT9=
EXTT10=
EXTT11=
EXTT12=
EXTT13=
EXTT14=
EXTT15=
EXTT16=
EXTT17=
EXTT18=
EXTT19=
EXTT20=
PLAYORDER=
